<svg width="800" height="450" viewBox="0 0 800 450" xmlns="http://www.w3.org/2000/svg">
  <defs>
    <linearGradient id="futureGradient" x1="0%" y1="0%" x2="100%" y2="100%">
      <stop offset="0%" style="stop-color:#0f172a;stop-opacity:1" />
      <stop offset="50%" style="stop-color:#1e1b4b;stop-opacity:1" />
      <stop offset="100%" style="stop-color:#312e81;stop-opacity:1" />
    </radialGradient>
    <linearGradient id="neonGlow" x1="0%" y1="0%" x2="100%" y2="100%">
      <stop offset="0%" style="stop-color:#00f5ff;stop-opacity:1" />
      <stop offset="100%" style="stop-color:#9945ff;stop-opacity:1" />
    </linearGradient>
  </defs>
  
  <!-- Background -->
  <rect width="800" height="450" fill="url(#futureGradient)"/>
  
  <!-- Grid pattern -->
  <defs>
    <pattern id="grid" width="40" height="40" patternUnits="userSpaceOnUse">
      <path d="M 40 0 L 0 0 0 40" fill="none" stroke="#1e1b4b" stroke-width="1" opacity="0.3"/>
    </pattern>
  </defs>
  <rect width="800" height="450" fill="url(#grid)"/>
  
  <!-- Holographic screen -->
  <rect x="200" y="100" width="400" height="250" fill="rgba(0,245,255,0.1)" stroke="url(#neonGlow)" stroke-width="2" rx="10"/>
  <rect x="210" y="110" width="380" height="230" fill="rgba(0,0,0,0.3)" rx="5"/>
  
  <!-- Code/script lines on screen -->
  <g font-family="Courier New, monospace" font-size="14" opacity="0.8">
    <text x="220" y="135" fill="#00f5ff">FUTURE_SCENE_001.AI</text>
    <text x="220" y="155" fill="#ffffff">// Generated by Neural Script Engine v5.0</text>
    <text x="220" y="180" fill="#9945ff">INT. MARS_COLONY - NIGHT</text>
    <text x="220" y="200" fill="#ffffff">ZARA (25, cyber-enhanced) approaches</text>
    <text x="220" y="220" fill="#ffffff">the quantum communicator.</text>
    <text x="220" y="250" fill="#00ff87">ZARA</text>
    <text x="220" y="270" fill="#ffffff">(through neural link)</text>
    <text x="220" y="290" fill="#ffffff">Earth Command, we have a problem.</text>
    <text x="220" y="320" fill="#ff6b9d">// AI Confidence: 98.7%</text>
  </g>
  
  <!-- Holographic interface elements -->
  <circle cx="150" cy="200" r="50" fill="none" stroke="#00f5ff" stroke-width="2" opacity="0.7">
    <animate attributeName="stroke-dasharray" values="0 314;157 157;0 314" dur="3s" repeatCount="indefinite"/>
  </circle>
  <circle cx="150" cy="200" r="30" fill="none" stroke="#9945ff" stroke-width="1" opacity="0.5">
    <animateTransform attributeName="transform" type="rotate" values="0 150 200;360 150 200" dur="4s" repeatCount="indefinite"/>
  </circle>
  
  <circle cx="650" cy="200" r="40" fill="none" stroke="#00ff87" stroke-width="2" opacity="0.7">
    <animate attributeName="stroke-dasharray" values="0 251;125 125;0 251" dur="2.5s" repeatCount="indefinite"/>
  </circle>
  
  <!-- Neural network visualization -->
  <g opacity="0.6">
    <!-- Nodes -->
    <circle cx="100" cy="80" r="4" fill="#00f5ff"/>
    <circle cx="120" cy="120" r="4" fill="#9945ff"/>
    <circle cx="140" cy="100" r="4" fill="#00ff87"/>
    <circle cx="160" cy="140" r="4" fill="#ff6b9d"/>
    <circle cx="180" cy="110" r="4" fill="#00f5ff"/>
    
    <!-- Connections -->
    <g stroke="#ffffff" stroke-width="1" opacity="0.4">
      <line x1="100" y1="80" x2="120" y2="120">
        <animate attributeName="stroke-opacity" values="0.4;0.8;0.4" dur="2s" repeatCount="indefinite"/>
      </line>
      <line x1="120" y1="120" x2="140" y2="100">
        <animate attributeName="stroke-opacity" values="0.4;0.8;0.4" dur="2.2s" repeatCount="indefinite"/>
      </line>
      <line x1="140" y1="100" x2="160" y2="140">
        <animate attributeName="stroke-opacity" values="0.4;0.8;0.4" dur="1.8s" repeatCount="indefinite"/>
      </line>
      <line x1="160" y1="140" x2="180" y2="110">
        <animate attributeName="stroke-opacity" values="0.4;0.8;0.4" dur="2.5s" repeatCount="indefinite"/>
      </line>
    </g>
  </g>
  
  <!-- AI Brain -->
  <g transform="translate(620, 80)">
    <circle cx="0" cy="0" r="35" fill="rgba(0,245,255,0.2)" stroke="#00f5ff" stroke-width="2"/>
    <g stroke="#9945ff" stroke-width="1" fill="none" opacity="0.8">
      <path d="M-20,-10 Q0,-25 20,-10"/>
      <path d="M-25,0 Q0,15 25,0"/>
      <path d="M-15,15 Q0,25 15,15"/>
      <circle cx="-10" cy="-5" r="2" fill="#00f5ff"/>
      <circle cx="10" cy="-5" r="2" fill="#9945ff"/>
      <circle cx="0" cy="8" r="2" fill="#00ff87"/>
    </g>
  </g>
  
  <!-- Floating data particles -->
  <g opacity="0.7">
    <circle cx="300" cy="50" r="2" fill="#00f5ff">
      <animateTransform attributeName="transform" type="translate" values="0,0;0,350;0,0" dur="6s" repeatCount="indefinite"/>
    </circle>
    <circle cx="500" cy="400" r="2" fill="#9945ff">
      <animateTransform attributeName="transform" type="translate" values="0,0;0,-350;0,0" dur="5s" repeatCount="indefinite"/>
    </circle>
    <circle cx="750" cy="150" r="2" fill="#00ff87">
      <animateTransform attributeName="transform" type="translate" values="0,0;-700,0;0,0" dur="4s" repeatCount="indefinite"/>
    </circle>
  </g>
  
  <!-- Futuristic UI elements -->
  <g transform="translate(50, 350)">
    <rect x="0" y="0" width="150" height="30" fill="rgba(0,245,255,0.1)" stroke="#00f5ff" stroke-width="1" rx="15"/>
    <text x="75" y="20" font-family="Arial, sans-serif" font-size="12" fill="#00f5ff" text-anchor="middle">Neural Processing</text>
    <rect x="10" y="35" width="130" height="6" fill="rgba(0,0,0,0.5)" rx="3"/>
    <rect x="10" y="35" width="90" height="6" fill="#00f5ff" rx="3">
      <animate attributeName="width" values="90;130;90" dur="3s" repeatCount="indefinite"/>
    </rect>
  </g>
  
  <g transform="translate(600, 350)">
    <rect x="0" y="0" width="150" height="30" fill="rgba(153,69,255,0.1)" stroke="#9945ff" stroke-width="1" rx="15"/>
    <text x="75" y="20" font-family="Arial, sans-serif" font-size="12" fill="#9945ff" text-anchor="middle">Story Generation</text>
    <rect x="10" y="35" width="130" height="6" fill="rgba(0,0,0,0.5)" rx="3"/>
    <rect x="10" y="35" width="110" height="6" fill="#9945ff" rx="3">
      <animate attributeName="width" values="110;130;110" dur="2.5s" repeatCount="indefinite"/>
    </rect>
  </g>
  
  <!-- Title with glow effect -->
  <text x="400" y="50" font-family="Arial, sans-serif" font-size="28" font-weight="bold" fill="#ffffff" text-anchor="middle" filter="url(#textGlow)">
    The Future of AI Screenwriting
  </text>
  
  <!-- Glow filter -->
  <defs>
    <filter id="textGlow" x="-20%" y="-20%" width="140%" height="140%">
      <feGaussianBlur stdDeviation="3" result="coloredBlur"/>
      <feMerge> 
        <feMergeNode in="coloredBlur"/>
        <feMergeNode in="SourceGraphic"/>
      </feMerge>
    </filter>
  </defs>
  
  <!-- Constellation lines -->
  <g stroke="#ffffff" stroke-width="0.5" opacity="0.3">
    <line x1="100" y1="300" x2="200" y2="250"/>
    <line x1="200" y1="250" x2="300" y2="280"/>
    <line x1="600" y1="280" x2="700" y2="320"/>
    <line x1="150" y1="380" x2="250" y2="350"/>
  </g>
  
  <!-- Stars -->
  <g fill="#ffffff" opacity="0.8">
    <circle cx="80" cy="30" r="1">
      <animate attributeName="opacity" values="0.8;1;0.8" dur="3s" repeatCount="indefinite"/>
    </circle>
    <circle cx="720" cy="60" r="1">
      <animate attributeName="opacity" values="0.8;1;0.8" dur="2s" repeatCount="indefinite"/>
    </circle>
    <circle cx="50" cy="400" r="1">
      <animate attributeName="opacity" values="0.8;1;0.8" dur="2.5s" repeatCount="indefinite"/>
    </circle>
    <circle cx="750" cy="400" r="1">
      <animate attributeName="opacity" values="0.8;1;0.8" dur="1.8s" repeatCount="indefinite"/>
    </circle>
  </g>
</svg>